<?xml version="1.0" standalone="no"?>
<!DOCTYPE svg PUBLIC "-//W3C//DTD SVG 20010904//EN"
 "http://www.w3.org/TR/2001/REC-SVG-20010904/DTD/svg10.dtd">
<svg version="1.0" xmlns="http://www.w3.org/2000/svg"
 width="64.000000pt" height="64.000000pt" viewBox="0 0 64.000000 64.000000"
 preserveAspectRatio="xMidYMid meet">

<g transform="translate(0.000000,64.000000) scale(0.100000,-0.100000)"
fill="#000000" stroke="none">
<path d="M135 591 c-48 -22 -69 -44 -90 -94 -21 -51 -19 -95 8 -147 34 -68
124 -116 174 -95 13 6 4 10 -31 16 -92 15 -141 70 -141 159 0 97 58 155 155
155 89 0 144 -49 159 -141 6 -35 10 -44 16 -31 21 50 -27 140 -95 175 -53 27
-101 28 -155 3z"/>
<path d="M394 585 c-11 -28 4 -48 33 -42 20 4 35 -4 68 -34 24 -22 48 -53 55
-69 13 -30 30 -40 30 -17 0 21 -36 68 -95 124 -57 54 -81 64 -91 38z"/>
<path d="M142 550 c-62 -38 -88 -114 -61 -174 11 -23 14 -24 33 -11 11 8 28
15 38 15 25 0 23 26 -2 33 -16 4 -20 14 -20 51 0 60 24 86 80 86 54 0 80 -29
80 -88 0 -35 -4 -45 -20 -49 -30 -8 -24 -30 10 -37 45 -8 70 11 70 54 0 103
-121 173 -208 120z"/>
<path d="M166 514 c-29 -29 -19 -39 44 -41 46 -2 60 1 60 12 0 23 -30 45 -60
45 -16 0 -36 -7 -44 -16z"/>
<path d="M182 434 c2 -23 8 -29 28 -29 18 0 26 6 28 23 2 14 -2 22 -11 22 -9
0 -23 3 -32 6 -13 6 -16 1 -13 -22z"/>
<path d="M350 368 c-132 -67 -132 -249 0 -316 56 -28 104 -28 160 0 132 67
132 249 0 316 -24 12 -60 22 -80 22 -20 0 -56 -10 -80 -22z m198 -92 c5 -22
-143 -176 -168 -176 -24 0 -92 75 -88 96 5 28 36 29 64 3 l25 -23 62 62 c64
64 98 77 105 38z"/>
<path d="M570 380 c0 -5 5 -10 10 -10 6 0 10 5 10 10 0 6 -4 10 -10 10 -5 0
-10 -4 -10 -10z"/>
<path d="M200 370 c0 -5 5 -10 10 -10 6 0 10 5 10 10 0 6 -4 10 -10 10 -5 0
-10 -4 -10 -10z"/>
<path d="M153 362 c-12 -2 -27 -10 -33 -17 -9 -11 -5 -18 22 -35 18 -11 49
-20 68 -20 29 0 39 6 57 34 l22 34 -24 5 c-17 3 -29 -2 -39 -17 l-15 -21 -18
20 c-11 13 -27 20 -40 17z"/>
<path d="M50 260 c0 -5 5 -10 10 -10 6 0 10 5 10 10 0 6 -4 10 -10 10 -5 0
-10 -4 -10 -10z"/>
<path d="M60 216 c0 -22 62 -98 97 -121 17 -11 34 -28 36 -38 9 -30 52 -18 52
13 0 21 -5 25 -33 26 -38 1 -103 57 -123 105 -12 31 -29 39 -29 15z"/>
</g>
</svg>
