<?xml version="1.0" standalone="no"?>
<!DOCTYPE svg PUBLIC "-//W3C//DTD SVG 20010904//EN"
 "http://www.w3.org/TR/2001/REC-SVG-20010904/DTD/svg10.dtd">
<svg version="1.0" xmlns="http://www.w3.org/2000/svg"
 width="64.000000pt" height="64.000000pt" viewBox="0 0 64.000000 64.000000"
 preserveAspectRatio="xMidYMid meet">

<g transform="translate(0.000000,64.000000) scale(0.100000,-0.100000)"
fill="#000000" stroke="none">
<path d="M243 622 c-67 -24 -118 -64 -153 -119 -50 -79 -62 -184 -30 -267 10
-28 11 -28 24 -10 11 15 11 31 3 74 -8 45 -6 67 7 114 30 103 139 186 246 186
104 0 215 -82 244 -181 20 -66 20 -92 0 -158 -29 -97 -140 -181 -241 -181 -27
0 -30 -12 -8 -30 13 -10 27 -11 69 -1 224 50 309 320 157 494 -72 81 -213 117
-318 79z"/>
<path d="M278 566 c-86 -23 -147 -87 -167 -175 -12 -56 -4 -116 15 -100 7 6
25 9 40 7 22 -2 35 -18 75 -88 57 -101 77 -115 146 -100 95 21 162 88 182 182
38 168 -124 320 -291 274z m72 -98 c0 -99 12 -118 77 -118 23 0 43 -4 43 -10
0 -5 -20 -10 -44 -10 -26 0 -48 -6 -56 -15 -15 -18 -42 -19 -58 -3 -16 16 -15
43 3 58 11 9 15 34 15 96 0 49 4 84 10 84 6 0 10 -34 10 -82z m-100 52 c0 -5
-4 -10 -10 -10 -5 0 -10 5 -10 10 0 6 5 10 10 10 6 0 10 -4 10 -10z m200 0 c0
-5 -5 -10 -11 -10 -5 0 -7 5 -4 10 3 6 8 10 11 10 2 0 4 -4 4 -10z m-280 -80
c0 -5 -2 -10 -4 -10 -3 0 -8 5 -11 10 -3 6 -1 10 4 10 6 0 11 -4 11 -10z m360
6 c0 -3 -4 -8 -10 -11 -5 -3 -10 -1 -10 4 0 6 5 11 10 11 6 0 10 -2 10 -4z
m-5 -206 c3 -5 1 -10 -4 -10 -6 0 -11 5 -11 10 0 6 2 10 4 10 3 0 8 -4 11 -10z
m-75 -80 c0 -5 -2 -10 -4 -10 -3 0 -8 5 -11 10 -3 6 -1 10 4 10 6 0 11 -4 11
-10z"/>
<path d="M324 349 c-10 -17 13 -36 27 -22 12 12 4 33 -11 33 -5 0 -12 -5 -16
-11z"/>
<path d="M74 163 c-37 -64 -68 -126 -68 -137 -1 -20 5 -21 145 -24 117 -2 148
0 158 12 10 11 -2 38 -61 140 -47 82 -79 126 -89 126 -11 0 -41 -42 -85 -117z
m96 -28 c0 -19 -4 -35 -10 -35 -5 0 -10 16 -10 35 0 19 5 35 10 35 6 0 10 -16
10 -35z m0 -65 c0 -5 -4 -10 -10 -10 -5 0 -10 5 -10 10 0 6 5 10 10 10 6 0 10
-4 10 -10z"/>
</g>
</svg>
