<?xml version="1.0" encoding="utf-8"?>
<!-- Generator: Adobe Illustrator 24.1.1, SVG Export Plug-In . SVG Version: 6.00 Build 0)  -->
<svg version="1.1" id="Layer_1" xmlns="http://www.w3.org/2000/svg" xmlns:xlink="http://www.w3.org/1999/xlink" x="0px" y="0px"
	 viewBox="0 0 512 512" style="enable-background:new 0 0 512 512;" xml:space="preserve">
<g id="XMLID_1_">
	<path id="XMLID_6_" d="M262.7,191.5c-1.6-3.1-6.3-3.9-8.6-0.8L149.5,329.9c-3.1,3.1-0.8,8.6,3.9,8.6l184,15.7
		c4.7,0,7.1-4.7,5.5-7.9L262.7,191.5L262.7,191.5z M382.2,265.4c-1.6-3.1-6.3-3.9-8.6-0.8L345.3,293c-1.6,1.6-1.6,3.9-0.8,6.3
		l29.1,56.6c0.8,1.6,2.4,2.4,3.9,2.4l51.1,4.7c4.7,0,7.1-4.7,5.5-7.9L382.2,265.4L382.2,265.4z M394.8,219.8
		c12.6,0,23.6-9.4,25.9-22c3.1-16.5-9.4-32.2-26.7-32.2c-12.6,0-23.6,9.4-25.9,22C364.9,204.9,377.5,220.6,394.8,219.8z"/>
	<path id="XMLID_10_" d="M482.9,111.3l-74.7-6.3l-7.1-76.3c-1.6-17.3-16.5-29.9-33.8-28.3L28.4,31.1C11.1,32.7-1.4,47.7,0.1,64.9
		L30.8,403c1.6,17.3,16.5,29.9,33.8,28.3l18.1-2.4l-1.6,18.9c-1.6,17.3,11,32.2,28.3,33.8l338.9,29.9c17.3,1.6,32.2-11,33.8-28.3
		L512,145.1C512.8,127.8,500.2,112.9,482.9,111.3L482.9,111.3z M63.8,307.1c-3.9,0-7.9-2.4-8.6-7.1L34.7,72c0-3.9,2.4-7.9,7.1-8.6
		l318.4-28.3c3.9,0,7.9,2.4,8.6,7.1l5.5,60.5L144,82.2c-17.3-1.6-32.2,11-33.8,28.3L92.9,304.7L63.8,307.1L63.8,307.1z M476.6,152.2
		l-19.7,228c0,3.9-3.9,7.1-8.6,7.1l-21.2-1.6l-297.2-25.9c-3.9,0-7.1-3.9-7.1-8.6l4.7-50.3l15.7-177.7c0-3.9,3.9-7.1,8.6-7.1
		l225.6,19.7l33.8,3.1l59,5.5C474.2,144.4,477.4,148.3,476.6,152.2z"/>
</g>
</svg>
