<?xml version="1.0" encoding="iso-8859-1"?>
<!-- Uploaded to: SVG Repo, www.svgrepo.com, Generator: SVG Repo Mixer Tools -->
<svg fill="#000000" height="800px" width="800px" version="1.1" id="Capa_1" xmlns="http://www.w3.org/2000/svg" xmlns:xlink="http://www.w3.org/1999/xlink" 
	 viewBox="0 0 490 490" xml:space="preserve">
<g>
	<line style="fill:none;" x1="25" y1="417" x2="227.3" y2="417"/>
	<line style="fill:none;" x1="25" y1="286.7" x2="201.2" y2="286.7"/>
	<line style="fill:none;" x1="25" y1="155.3" x2="382.6" y2="155.3"/>
	<line style="fill:none;" x1="25" y1="25" x2="382.6" y2="25"/>
	<g>
		<g>
			<path d="M25,180.4h357.6c13.6,0,25-11.5,25-25s-11.5-25-25-25H25c-13.6,0-25,11.5-25,25S11.5,180.4,25,180.4z"/>
			<path d="M25,50h357.6c13.6,0,25-11.5,25-25c0-13.6-11.5-25-25-25H25C11.4,0,0,11.5,0,25C0,38.6,11.5,50,25,50z"/>
			<path d="M336.7,183.5c-57.2,0-107.3,31.6-133.6,78.3c-0.6-0.1-1.3-0.1-1.9-0.1H25c-13.6,0-25,11.5-25,25s11.5,25,25,25h160.5
				c-1.3,8.1-2.1,16.5-2.1,25c0,19.5,3.7,38.1,10.3,55.3H25c-13.6,0-25,11.5-25,25c0,13.6,11.5,25,25,25h200.5
				c28,29.5,67.5,48,111.2,48c84.4,0,153.3-68.8,153.3-153.3S421.2,183.5,336.7,183.5z M336.7,441c-57.3,0-103.2-45.9-103.2-103.2
				c0-57.3,45.9-103.2,103.2-103.2s103.2,45.9,103.2,103.2C440,395.1,394.1,441,336.7,441z"/>
		</g>
		<path d="M373.8,362.7c0-19.8-16.1-36-36-36c-7.8,0-14.2-6.4-14.2-14.2c0-7.8,6.4-14.2,14.2-14.2c4,0,7.6,1.6,10.3,4.5
			c4.1,4.4,11,4.6,15.4,0.5c4.4-4.1,4.6-11,0.5-15.4c-4.2-4.5-9.5-7.8-15.3-9.6V272c0-6-4.9-10.9-10.9-10.9s-10.9,4.9-10.9,10.9v6.3
			c-14.5,4.6-25.1,18.2-25.1,34.3c0,19.8,16.1,36,36,36c7.8,0,14.2,6.4,14.2,14.2c0,7.8-6.4,14.2-14.2,14.2c-4,0-7.6-1.6-10.3-4.5
			c-4.1-4.4-11-4.6-15.4-0.5c-4.4,4.1-4.6,11-0.5,15.4c4.2,4.5,9.5,7.8,15.3,9.6v6.3c0,6,4.9,10.9,10.9,10.9s10.9-4.9,10.9-10.9V397
			C363.2,392.4,373.8,378.7,373.8,362.7z"/>
	</g>
</g>
</svg>