<?xml version="1.0" standalone="no"?>
<!DOCTYPE svg PUBLIC "-//W3C//DTD SVG 20010904//EN"
 "http://www.w3.org/TR/2001/REC-SVG-20010904/DTD/svg10.dtd">
<svg version="1.0" xmlns="http://www.w3.org/2000/svg"
 width="64.000000pt" height="64.000000pt" viewBox="0 0 64.000000 64.000000"
 preserveAspectRatio="xMidYMid meet">

<g transform="translate(0.000000,64.000000) scale(0.100000,-0.100000)"
fill="#000000" stroke="none">
<path d="M239 612 c-12 -36 -68 -59 -97 -41 -24 15 -46 7 -67 -25 -13 -19 -14
-29 -5 -46 18 -33 -4 -86 -41 -99 -28 -10 -30 -13 -27 -53 3 -36 7 -44 26 -46
33 -5 56 -61 40 -97 -10 -23 -9 -29 20 -58 25 -24 34 -29 44 -19 27 27 104 -2
110 -40 3 -20 9 -23 48 -23 39 0 45 3 48 23 2 12 12 27 22 32 19 10 19 11 0
30 -11 11 -20 24 -20 29 0 4 -11 6 -25 3 -94 -17 -195 71 -195 171 0 84 84
167 170 167 92 0 175 -88 168 -177 -2 -24 0 -43 4 -43 5 0 17 -9 28 -20 19
-19 20 -19 30 -1 5 10 21 22 35 25 22 6 25 12 25 47 0 35 -3 41 -29 50 -37 13
-59 66 -41 100 11 19 8 26 -18 51 -25 26 -32 29 -51 18 -34 -18 -87 4 -100 41
-9 26 -15 29 -51 29 -36 0 -42 -3 -51 -28z"/>
<path d="M270 385 c0 -40 4 -55 14 -55 18 0 26 22 26 71 0 32 -3 39 -20 39
-18 0 -20 -7 -20 -55z"/>
<path d="M270 285 c0 -8 7 -15 15 -15 8 0 15 7 15 15 0 8 -7 15 -15 15 -8 0
-15 -7 -15 -15z"/>
<path d="M390 291 c0 -5 11 -18 25 -29 24 -19 24 -20 5 -37 -20 -18 -21 -17
-45 5 -32 30 -40 21 -25 -24 13 -41 43 -66 80 -66 18 0 43 -18 85 -61 73 -73
91 -85 111 -68 8 6 14 16 14 21 0 6 -31 43 -70 82 -44 46 -70 81 -70 95 0 35
-19 62 -55 77 -40 16 -55 18 -55 5z"/>
<path d="M570 220 c-11 -7 -11 -11 -1 -24 11 -12 17 -14 27 -5 8 6 14 15 14
19 0 13 -26 19 -40 10z"/>
</g>
</svg>
